<?xml version="1.0" standalone="no"?>
<!DOCTYPE svg PUBLIC "-//W3C//DTD SVG 20010904//EN"
 "http://www.w3.org/TR/2001/REC-SVG-20010904/DTD/svg10.dtd">
<svg version="1.0" xmlns="http://www.w3.org/2000/svg"
 width="496.000000pt" height="496.000000pt" viewBox="0 0 496.000000 496.000000"
 preserveAspectRatio="xMidYMid meet">
<metadata>
Created by potrace 1.14, written by Peter Selinger 2001-2017
</metadata>
<g transform="translate(0.000000,496.000000) scale(0.100000,-0.100000)"
fill="#000000" stroke="none">
<path d="M4070 945 l0 -515 105 0 105 0 1 38 c0 48 0 905 0 955 l-1 37 -105 0
-105 0 0 -515z"/>
<path d="M3470 1178 c-66 -10 -162 -55 -209 -98 -34 -31 -82 -95 -86 -115 -1
-5 -8 -30 -15 -55 -17 -58 -17 -174 0 -225 31 -96 120 -189 216 -227 74 -29
91 -32 199 -32 84 1 110 5 162 26 59 24 133 75 130 90 -1 3 -26 31 -55 62
l-53 56 -37 -25 c-47 -31 -131 -49 -188 -40 -65 9 -131 50 -154 96 -11 21 -20
41 -20 44 0 3 127 5 281 5 l281 0 -4 93 c-4 75 -9 102 -32 145 -39 77 -86 124
-159 159 -90 44 -161 55 -257 41z m152 -174 c17 -9 39 -24 48 -33 19 -18 50
-74 50 -91 0 -6 -61 -10 -180 -10 -169 0 -180 1 -180 19 0 32 44 85 90 109 53
26 127 29 172 6z"/>
<path d="M620 1168 c0 -4 68 -168 150 -363 83 -196 150 -360 150 -366 0 -6 45
-9 116 -7 l116 3 27 70 c63 156 163 391 177 413 8 12 12 22 9 22 -3 0 0 10 7
23 6 12 13 27 14 32 1 6 18 47 38 93 l35 82 -27 1 c-15 0 -61 1 -102 1 l-75 0
-14 -34 c-8 -18 -16 -37 -17 -43 -3 -12 -88 -214 -113 -270 -36 -79 -44 -100
-47 -112 -1 -6 -6 -19 -11 -28 -10 -17 -4 -31 -147 318 -35 87 -66 161 -69
163 -8 8 -217 10 -217 2z"/>
<path d="M1739 1164 c-70 -21 -139 -72 -191 -142 -26 -34 -47 -66 -47 -70 1
-4 1 -9 -1 -12 -11 -29 -15 -70 -14 -150 0 -74 5 -105 21 -142 54 -118 166
-196 315 -218 139 -21 294 16 359 86 l22 23 -41 49 c-64 76 -67 77 -98 53 -31
-24 -114 -51 -158 -51 -47 0 -127 28 -154 53 -25 23 -52 68 -52 86 0 7 95 12
278 13 l277 3 -1 70 c-1 90 -16 140 -60 206 -70 106 -180 160 -326 158 -46 0
-104 -7 -129 -15z m238 -170 c35 -26 73 -81 73 -105 0 -18 -11 -19 -180 -19
-99 0 -180 2 -180 4 0 2 7 21 16 42 29 72 90 106 181 101 44 -2 71 -9 90 -23z"/>
<path d="M2315 1171 l-31 -6 154 -367 155 -368 109 0 108 0 24 52 c47 103 59
133 61 143 2 6 12 30 23 55 11 25 37 86 57 135 20 50 42 99 48 110 6 11 12 25
13 30 1 6 20 54 43 109 23 54 41 99 39 101 -3 4 -118 8 -164 6 -30 -1 -32 -5
-93 -148 -35 -82 -71 -166 -81 -188 -9 -22 -28 -66 -40 -97 -12 -32 -25 -58
-29 -58 -4 0 -52 110 -107 245 l-99 245 -65 1 c-36 0 -72 2 -80 3 -8 1 -29 0
-45 -3z"/>
</g>
</svg>
